<svg width="20" height="23" viewBox="0 0 20 23" fill="none" xmlns="http://www.w3.org/2000/svg">
<path d="M18.9425 17.6129C18.6194 18.366 18.2203 19.0841 17.7513 19.7561C17.1248 20.6509 16.6103 21.2693 16.216 21.6134C15.6035 22.1758 14.9455 22.4651 14.242 22.4814C13.738 22.4814 13.129 22.3379 12.4197 22.0463C11.708 21.7558 11.0547 21.6134 10.4562 21.6134C9.82967 21.6134 9.15767 21.7558 8.43783 22.0463C7.71917 22.3379 7.13817 22.4908 6.69367 22.5048C6.0205 22.5339 5.34733 22.2376 4.6765 21.6134C4.24833 21.2401 3.71283 20.5984 3.07 19.6908C2.38167 18.7236 1.81583 17.5978 1.3725 16.3179C0.897668 14.9331 0.659668 13.5938 0.659668 12.2964C0.659668 10.8113 0.980502 9.52911 1.62333 8.45578C2.10954 7.61282 2.80464 6.90928 3.64167 6.41294C4.46705 5.91789 5.40927 5.65133 6.37167 5.64061C6.90833 5.64061 7.61183 5.80628 8.48333 6.13294C9.35483 6.45961 9.91483 6.62528 10.1587 6.62528C10.343 6.62528 10.9625 6.43044 12.0172 6.04428C13.0123 5.68611 13.8523 5.53794 14.5407 5.59628C16.4073 5.74678 17.8085 6.48178 18.7407 7.80711C17.0723 8.81861 16.2475 10.2338 16.2638 12.0503C16.2778 13.4654 16.7923 14.6426 17.8003 15.5771C18.246 16.0036 18.7659 16.3448 19.3345 16.5839C19.2108 16.9421 19.0802 17.2839 18.9425 17.6129ZM14.6643 0.776776C14.6643 1.88511 14.2583 2.92111 13.4522 3.87894C12.4768 5.01761 11.2985 5.67678 10.021 5.57294C10.0043 5.43357 9.99611 5.29331 9.9965 5.15294C9.9965 4.08778 10.4585 2.94911 11.2833 2.01694C11.694 1.54561 12.2167 1.15244 12.8502 0.839776C13.4825 0.531775 14.0798 0.361442 14.6422 0.332275C14.6573 0.481609 14.6643 0.629776 14.6643 0.776776Z" fill="#0F172A"/>
</svg>
