<svg width="22" height="22" viewBox="0 0 22 22" fill="none" xmlns="http://www.w3.org/2000/svg">
<g clip-path="url(#clip0_421_2571)">
<path d="M4.82716 8.95125C5.25605 7.65366 6.08378 6.52466 7.19226 5.72531C8.30075 4.92597 9.63336 4.49711 11 4.49992C12.5492 4.49992 13.9498 5.04992 15.0498 5.95008L18.2508 2.75C16.3002 1.04958 13.8004 0 11 0C6.66416 0 2.93149 2.47317 1.13666 6.09583L4.82716 8.95125Z" fill="#EA4335"/>
<path d="M14.7033 16.512C13.7042 17.1564 12.4355 17.5002 11 17.5002C9.63881 17.503 8.31123 17.0775 7.20521 16.2841C6.09919 15.4907 5.27077 14.3694 4.83724 13.0791L1.13391 15.8905C2.04255 17.7296 3.44874 19.277 5.19275 20.357C6.93676 21.437 8.94868 22.0062 11 22.0001C13.6886 22.0001 16.2571 21.044 18.1812 19.2501L14.7042 16.512H14.7033Z" fill="#34A853"/>
<path d="M18.1812 19.2499C20.1932 17.3726 21.4995 14.5786 21.4995 10.9999C21.4995 10.3491 21.3996 9.64967 21.2502 8.99976H11V13.2503H16.8997C16.6091 14.6794 15.8272 15.7858 14.7043 16.5118L18.1812 19.2499Z" fill="#4A90E2"/>
<path d="M4.83723 13.0791C4.61298 12.4089 4.49905 11.7068 4.4999 11.0001C4.4999 10.2833 4.61448 9.59486 4.82715 8.95136L1.13665 6.09595C0.381664 7.62008 -0.00752869 9.29926 -1.53203e-05 11.0001C-1.53203e-05 12.7601 0.407901 14.4193 1.1339 15.8905L4.83723 13.0791Z" fill="#FBBC05"/>
</g>
<defs>
<clipPath id="clip0_421_2571">
<rect width="22" height="22" fill="white"/>
</clipPath>
</defs>
</svg>
