<?xml version="1.0" encoding="UTF-8"?>
<svg xmlns="http://www.w3.org/2000/svg" viewBox="0 0 1181.62 1079.89">
  <g id="box">
    <path d="M366.67,513.23v533.33m0-533.33h-117.86c-17.37,0-34.02-7.02-46.3-19.53-12.28-12.5-19.18-29.46-19.18-47.14s6.9-34.64,19.18-47.14c12.28-12.5,28.93-19.53,46.3-19.53,91.67,0,117.86,133.33,117.86,133.33Zm0,0h117.86c17.37,0,34.02-7.02,46.3-19.53,12.28-12.5,19.18-29.46,19.18-47.14s-6.9-34.64-19.18-47.14c-12.28-12.5-28.93-19.53-46.3-19.53-91.67,0-117.86,133.33-117.86,133.33Zm266.67,166.67v260c0,37.34,0,56.01-7.27,70.27-6.39,12.54-16.59,22.74-29.13,29.13-14.26,7.27-32.93,7.27-70.27,7.27H206.67c-37.34,0-56.01,0-70.27-7.27-12.54-6.39-22.74-16.59-29.13-29.13-7.27-14.26-7.27-32.93-7.27-70.27v-260m-66.67-113.33v60c0,18.67,0,28,3.63,35.13,3.2,6.27,8.3,11.37,14.57,14.57,7.13,3.63,16.46,3.63,35.13,3.63H646.67c18.67,0,28,0,35.13-3.63,6.27-3.2,11.37-8.29,14.57-14.57,3.63-7.13,3.63-16.47,3.63-35.13v-60c0-18.67,0-28-3.63-35.13-3.2-6.27-8.29-11.37-14.57-14.57-7.13-3.63-16.46-3.63-35.13-3.63H86.67c-18.67,0-28,0-35.13,3.63-6.27,3.2-11.37,8.3-14.57,14.57-3.63,7.13-3.63,16.46-3.63,35.13Z" style="fill: none; stroke: #FFFFFF; stroke-linecap: round; stroke-linejoin: round; stroke-width: 66.67px;"/>
  </g>
  <g id="star">
    <path d="M1031.62,233.33V66.67m-83.33,83.33h166.67M631.62,33.33l-26.15,52.3c-8.85,17.7-13.27,26.55-19.19,34.22-5.25,6.8-11.35,12.91-18.15,18.15-7.67,5.91-16.52,10.34-34.22,19.19l-52.3,26.15,52.3,26.15c17.7,8.85,26.55,13.27,34.22,19.19,6.8,5.25,12.91,11.35,18.15,18.15,5.91,7.67,10.34,16.52,19.19,34.22l26.15,52.3,26.15-52.3c8.85-17.7,13.27-26.55,19.19-34.22,5.25-6.8,11.35-12.91,18.15-18.15,7.67-5.91,16.52-10.34,34.22-19.19l52.3-26.15-52.3-26.15c-17.7-8.85-26.55-13.27-34.22-19.19-6.8-5.25-12.91-11.35-18.15-18.15-5.91-7.67-10.34-16.52-19.19-34.22l-26.15-52.3Zm350,333.33l-31.7,63.41c-8.85,17.7-13.28,26.55-19.19,34.22-5.25,6.8-11.35,12.9-18.15,18.15-7.67,5.91-16.52,10.34-34.22,19.19l-63.41,31.7,63.41,31.7c17.7,8.85,26.55,13.28,34.22,19.19,6.8,5.25,12.9,11.35,18.15,18.15,5.91,7.67,10.34,16.52,19.19,34.22l31.7,63.41,31.7-63.41c8.85-17.7,13.28-26.55,19.19-34.22,5.25-6.8,11.35-12.9,18.15-18.15,7.67-5.91,16.52-10.34,34.22-19.19l63.41-31.7-63.41-31.7c-17.7-8.85-26.55-13.28-34.22-19.19-6.8-5.25-12.9-11.35-18.15-18.15-5.91-7.67-10.34-16.52-19.19-34.22l-31.7-63.41Z" style="fill: none; stroke: #FFFFFF; stroke-linecap: round; stroke-linejoin: round; stroke-width: 66.67px;"/>
  </g>
</svg>